<?xml version="1.0" encoding="UTF-8"?>
<svg width="512" height="512" version="1.1" viewBox="0 0 135.47 135.47" xmlns="http://www.w3.org/2000/svg"><g transform="matrix(.96101 0 0 .96101 2.6436 2.6437)" stroke="#344966"><path d="m1.2976 1.2976h132.87v132.87h-132.87z" fill="#fcfcfc" stroke-width="8.0971"/><path d="m68.572 42.325c-3.2506 0-5.9595 1.1435-8.1265 3.4311-2.1671 2.2875-3.2507 4.9963-3.2507 8.1265 0 3.1302 1.0836 5.7791 3.2507 7.9462 2.1671 2.1671 4.8759 3.2507 8.1265 3.2507s5.9595-1.144 8.1265-3.4315c2.2875-2.4078 3.4311-5.1167 3.4311-8.1265 0-3.1302-1.1435-5.7787-3.4311-7.9457-2.1671-2.1671-4.8759-3.2507-8.1265-3.2507zm0.18033 45.87c-3.1302 0-5.7787 1.144-7.9457 3.4315-2.0467 2.1671-3.0699 4.7556-3.0699 7.7655 0 3.0098 1.0232 5.598 3.0699 7.765 2.1671 2.0467 4.8155 3.0704 7.9457 3.0704h0.36109c0 4.8157-1.1435 9.2101-3.4311 13.183-2.1671 4.0934-5.1769 7.5844-9.0292 10.474l0.62827 0.87955h6.564c3.2484-2.4084 5.969-5.1686 8.1578-8.2835 3.1302-4.4545 5.2975-9.0898 6.5014-13.905 1.3243-4.8157 1.8056-9.0898 1.4443-12.822-0.36118-3.4914-1.5651-6.2606-3.6118-8.3073-1.9263-2.1671-4.4545-3.2507-7.5847-3.2507z" fill="#344966" stroke-width="6.9082"/></g></svg>
